{"accessors":[{"name":"polySurface2_Untitled.001-Mesh_positions","componentType":5126,"count":80,"min":[-0.29551801085472107,0.13727499544620514,-0.41724199056625366],"max":[0.29551801085472107,0.18582500517368317,0.21131399273872375],"type":"VEC3","bufferView":0,"byteOffset":0},{"name":"polySurface2_Untitled.001-Mesh_normals","componentType":5126,"count":80,"min":[-0.8090000152587891,0.46709999442100525,-0.8307999968528748],"max":[0.8090000152587891,0.861299991607666,0.003100000089034438],"type":"VEC3","bufferView":0,"byteOffset":9984},{"name":"polySurface2_Untitled.001-Mesh_texcoords","componentType":5126,"count":80,"min":[-0.0806879997253418,-0.05473700165748596],"max":[1.0492689609527588,0.7787709832191467],"type":"VEC2","bufferView":1,"byteOffset":0},{"name":"polySurface2_Untitled.001-Mesh_0_indices","componentType":5123,"count":96,"min":[0],"max":[55],"type":"SCALAR","bufferView":2,"byteOffset":0},{"name":"polySurface2_Untitled.001-Mesh_1_indices","componentType":5123,"count":36,"min":[56],"max":[79],"type":"SCALAR","bufferView":2,"byteOffset":192},{"name":"polySurface3_Untitled-Mesh_positions","componentType":5126,"count":752,"min":[-0.3111090064048767,0.09998399764299393,-0.42665401101112366],"max":[0.3111090064048767,0.2559329867362976,0.3021030128002167],"type":"VEC3","bufferView":0,"byteOffset":960},{"name":"polySurface3_Untitled-Mesh_normals","componentType":5126,"count":752,"min":[-1,-1,-1],"max":[1,0.9980000257492065,0.9883000254631042],"type":"VEC3","bufferView":0,"byteOffset":10944},{"name":"polySurface3_Untitled-Mesh_texcoords","componentType":5126,"count":752,"min":[0.027869999408721924,0.014074999839067459],"max":[0.0822020024061203,0.07388400286436081],"type":"VEC2","bufferView":1,"byteOffset":640},{"name":"polySurface3_Untitled-Mesh_0_indices","componentType":5123,"count":474,"min":[150],"max":[715],"type":"SCALAR","bufferView":2,"byteOffset":264},{"name":"polySurface3_Untitled-Mesh_1_indices","componentType":5123,"count":606,"min":[0],"max":[401],"type":"SCALAR","bufferView":2,"byteOffset":1212},{"name":"polySurface3_Untitled-Mesh_2_indices","componentType":5123,"count":36,"min":[716],"max":[751],"type":"SCALAR","bufferView":2,"byteOffset":2424}],"asset":{"generator":"obj2gltf","version":"2.0"},"buffers":[{"name":"input","byteLength":29120,"uri":"data:application/octet-stream;base64,"}],"bufferViews":[{"name":"bufferView_0","buffer":0,"byteLength":19968,"byteOffset":0,"byteStride":12,"target":34962},{"name":"bufferView_1","buffer":0,"byteLength":6656,"byteOffset":19968,"byteStride":8,"target":34962},{"name":"bufferView_2","buffer":0,"byteLength":2496,"byteOffset":26624,"target":34963}],"materials":[{"name":"T_lam_plane_windows","pbrMetallicRoughness":{"baseColorFactor":[0.5,0.5,0.5,1],"metallicFactor":0,"roughnessFactor":1},"emissiveFactor":[0,0,0],"alphaMode":"OPAQUE","doubleSided":false},{"name":"lambert3","pbrMetallicRoughness":{"baseColorFactor":[0.5,0.5,0.5,1],"metallicFactor":0,"roughnessFactor":1},"emissiveFactor":[0,0,0],"alphaMode":"OPAQUE","doubleSided":false},{"name":"lambert2","pbrMetallicRoughness":{"baseColorFactor":[0.5,0.5,0.5,1],"metallicFactor":0,"roughnessFactor":1},"emissiveFactor":[0,0,0],"alphaMode":"OPAQUE","doubleSided":false},{"name":"lam_balck_engine","pbrMetallicRoughness":{"baseColorFactor":[0.5,0.5,0.5,1],"metallicFactor":0,"roughnessFactor":1},"emissiveFactor":[0,0,0],"alphaMode":"OPAQUE","doubleSided":false}],"meshes":[{"name":"polySurface2_Untitled.001-Mesh","primitives":[{"attributes":{"POSITION":0,"NORMAL":1,"TEXCOORD_0":2},"indices":3,"material":0,"mode":4},{"attributes":{"POSITION":0,"NORMAL":1,"TEXCOORD_0":2},"indices":4,"material":1,"mode":4}]},{"name":"polySurface3_Untitled-Mesh","primitives":[{"attributes":{"POSITION":5,"NORMAL":6,"TEXCOORD_0":7},"indices":8,"material":1,"mode":4},{"attributes":{"POSITION":5,"NORMAL":6,"TEXCOORD_0":7},"indices":9,"material":2,"mode":4},{"attributes":{"POSITION":5,"NORMAL":6,"TEXCOORD_0":7},"indices":10,"material":3,"mode":4}]}],"nodes":[{"name":"polySurface2_Untitled.001","mesh":0},{"name":"polySurface3_Untitled","mesh":1}],"scene":0,"scenes":[{"nodes":[0,1]}]}
